<?xml version="1.0" standalone="no"?>
<!DOCTYPE svg PUBLIC "-//W3C//DTD SVG 20010904//EN"
 "http://www.w3.org/TR/2001/REC-SVG-20010904/DTD/svg10.dtd">
<svg version="1.0" xmlns="http://www.w3.org/2000/svg"
 width="233.000000pt" height="251.000000pt" viewBox="0 0 233.000000 251.000000"
 preserveAspectRatio="xMidYMid meet">

<g transform="translate(0.000000,251.000000) scale(0.100000,-0.100000)"
fill="#000000" stroke="none">
<path d="M1042 2381 c-29 -10 -58 -23 -63 -28 -7 -7 -4 -31 9 -74 16 -52 18
-76 11 -124 -4 -34 -4 -88 1 -125 5 -35 7 -66 5 -68 -13 -14 -167 -57 -177
-50 -20 12 -25 10 -32 -15 -3 -13 -22 -33 -43 -44 -59 -34 -148 -113 -202
-181 -67 -83 -113 -169 -147 -272 -26 -78 -28 -98 -28 -240 -1 -181 11 -236
80 -375 103 -210 293 -365 520 -426 103 -28 289 -30 383 -6 151 40 257 98 367
201 393 364 334 999 -119 1296 -68 44 -188 94 -254 105 -49 8 -52 17 -27 86
11 31 14 61 9 101 -5 49 -2 64 20 107 33 65 32 75 -10 100 -88 51 -209 64
-303 32z m86 -21 c-15 -24 -27 -25 -35 -4 -6 15 -8 15 -20 -2 -12 -16 -15 -17
-23 -4 -11 18 9 28 58 29 30 1 31 -1 20 -19z m130 5 c35 -11 50 -20 45 -27 -5
-9 -8 -9 -11 0 -3 10 -7 10 -19 1 -11 -10 -16 -10 -23 0 -4 8 -16 11 -29 6
-15 -5 -21 -2 -21 9 0 9 -4 16 -10 16 -5 0 -10 -4 -10 -10 0 -15 -17 -12 -24
5 -7 20 34 20 102 0z m-105 -39 c7 -16 -18 -54 -28 -44 -9 9 3 58 14 58 5 0
11 -6 14 -14z m197 -8 c0 -6 -6 -5 -15 2 -8 7 -15 14 -15 16 0 2 7 1 15 -2 8
-4 15 -11 15 -16z m-332 -20 c1 -23 -2 -28 -8 -18 -12 19 -13 50 -2 50 5 0 9
-14 10 -32z m38 -15 c-12 -12 -29 15 -21 34 7 17 8 16 18 -5 5 -12 7 -25 3
-29z m130 -1 c-12 -11 -18 7 -10 30 l8 23 4 -23 c2 -13 1 -26 -2 -30z m49 0
c-6 -16 -7 -16 -16 1 -8 13 -7 23 3 34 12 15 13 15 16 -1 2 -9 1 -25 -3 -34z
m-135 6 c0 -5 -6 -8 -14 -8 -9 0 -12 7 -9 21 4 16 8 17 14 7 5 -7 9 -16 9 -20z
m180 -3 c0 -15 -6 -25 -15 -25 -12 0 -13 4 -3 25 6 14 13 25 15 25 1 0 3 -11
3 -25z m31 -18 c-13 -13 -15 1 -4 30 7 17 8 17 11 -1 2 -10 -1 -23 -7 -29z
m37 8 c-6 -14 -13 -24 -14 -22 -6 6 9 47 17 47 5 0 3 -11 -3 -25z m-78 -39
c47 -11 54 -33 10 -29 -14 1 -76 5 -137 9 -82 5 -113 11 -113 20 0 7 10 15 23
17 31 7 163 -4 217 -17z m-50 -45 c22 -6 25 -13 28 -59 2 -41 -3 -66 -23 -110
l-27 -57 -45 50 c-27 30 -47 45 -50 38 -3 -7 -11 -13 -18 -13 -10 0 -15 16
-17 51 -3 48 -11 61 -46 75 -1 1 0 9 4 18 5 13 21 16 88 15 44 -1 92 -4 106
-8z m88 -42 c3 -24 -21 -69 -32 -59 -2 3 -2 25 1 48 6 46 26 53 31 11z m-263
-39 c3 -5 -1 -10 -10 -10 -9 0 -13 5 -10 10 3 6 8 10 10 10 2 0 7 -4 10 -10z
m5 -43 c0 -7 -7 -22 -15 -33 -14 -18 -14 -17 -15 14 0 22 5 32 15 32 8 0 15
-6 15 -13z m215 -91 c-7 -74 -9 -78 -52 -119 -41 -39 -87 -62 -104 -52 -3 3
-10 22 -14 42 l-8 38 -12 -40 -12 -40 -17 55 c-14 44 -15 62 -6 84 10 26 12
27 28 13 14 -13 20 -13 34 -3 10 7 17 15 15 17 -1 2 5 -5 14 -15 10 -11 23
-38 30 -60 11 -34 14 -37 17 -18 2 13 -7 44 -20 70 -21 42 -27 47 -61 50 -22
2 -45 -3 -54 -10 -15 -12 -15 -11 -4 10 10 19 19 23 54 20 38 -3 45 -8 74 -52
l32 -50 22 50 c11 27 25 60 30 73 16 40 21 16 14 -63z m150 -53 c241 -76 432
-267 517 -517 41 -118 50 -298 23 -423 -31 -140 -114 -302 -195 -378 l-32 -30
21 40 c11 23 24 63 27 90 3 28 18 68 32 90 15 23 27 57 28 81 1 23 10 56 18
72 21 41 21 44 -14 99 -41 64 -68 141 -80 224 -6 39 -18 87 -29 107 -10 20
-21 59 -24 85 -8 60 -37 129 -100 236 l-49 84 -129 60 c-112 53 -129 64 -129
85 0 21 3 23 33 17 17 -3 55 -13 82 -22z m-405 5 c0 -13 -79 -68 -96 -68 -5 0
-20 9 -32 19 l-24 18 64 21 c74 25 88 26 88 10z m-160 -78 c0 -28 -2 -30 -20
-20 -30 16 -25 50 7 50 8 0 13 -12 13 -30z m170 3 c0 -9 -11 -44 -25 -78 -13
-34 -28 -90 -33 -126 -8 -57 -10 -61 -17 -35 -8 30 -4 56 37 193 19 65 38 88
38 46z m293 11 c26 -9 22 -44 -5 -44 -13 0 -41 -3 -63 -6 l-40 -7 35 37 c19
20 39 34 45 31 5 -3 18 -8 28 -11z m-361 -83 l-28 -84 -16 42 c-16 41 -16 43
5 68 37 44 58 65 63 61 2 -3 -9 -42 -24 -87z m-52 43 c0 -8 -7 -14 -15 -14
-10 0 -15 10 -15 26 0 22 2 25 15 14 8 -7 15 -19 15 -26z m-125 -17 c0 -37 -6
-50 -41 -86 -109 -110 -176 -329 -171 -556 1 -79 -2 -107 -16 -132 -26 -50
-22 -85 18 -133 19 -23 35 -52 36 -63 0 -12 6 -75 12 -140 8 -76 9 -116 2
-114 -20 7 -117 144 -150 212 -60 124 -79 212 -79 360 0 139 13 205 61 320 52
124 175 275 282 345 24 17 45 30 45 30 1 0 1 -19 1 -43z m592 -14 c-10 -10
-150 -20 -177 -13 -17 5 3 10 64 15 78 7 89 10 94 28 5 21 5 21 15 -1 6 -12 7
-25 4 -29z m87 20 c44 -23 125 -103 147 -144 10 -21 30 -67 44 -104 20 -53 22
-66 10 -61 -9 3 -18 -1 -21 -8 -6 -17 42 -116 56 -116 19 0 50 -65 50 -102 0
-21 -2 -38 -4 -38 -2 0 -27 16 -56 35 -29 19 -57 35 -64 35 -6 1 7 10 28 22
37 19 39 21 21 34 -10 8 -29 14 -42 14 -13 0 -26 7 -29 15 -14 36 -91 -3 -124
-62 l-21 -38 7 55 c3 30 10 82 14 115 8 60 -4 155 -20 155 -18 0 -30 -70 -30
-181 0 -70 -4 -119 -10 -119 -21 0 -30 44 -30 148 0 135 -12 199 -45 253 -15
22 -25 42 -23 44 2 1 22 5 45 8 35 4 43 2 48 -14 7 -21 25 -26 25 -6 0 7 -12
30 -26 51 l-26 38 23 -7 c13 -4 37 -14 53 -22z m-636 5 c18 -18 15 -28 -8 -28
-13 0 -20 7 -20 20 0 23 10 26 28 8z m236 -34 c3 -9 6 -33 6 -55 0 -21 5 -39
10 -39 6 0 10 15 10 34 0 26 5 36 21 41 29 10 30 5 14 -50 -17 -56 -19 -111
-5 -120 6 -4 10 9 10 32 0 21 5 45 11 53 9 13 10 13 6 -1 -10 -31 -20 -276
-13 -314 13 -67 27 -23 41 124 7 78 15 144 19 148 8 8 8 4 -4 -147 -11 -143
-30 -283 -37 -276 -3 3 -27 117 -53 253 -42 221 -48 245 -60 224 -7 -14 -10
-43 -8 -72 3 -27 4 -49 2 -49 -2 0 -10 13 -19 30 -19 37 -19 69 1 142 16 57
36 74 48 42z m-159 -91 c14 -49 32 -106 40 -128 17 -46 19 -75 6 -75 -16 0
-91 226 -91 274 0 42 21 8 45 -71z m-63 26 c1 -13 -17 -72 -40 -129 -22 -58
-64 -181 -92 -275 -28 -93 -58 -190 -66 -215 -12 -38 -12 -45 0 -52 7 -4 16
-19 20 -32 8 -31 71 -86 99 -86 42 0 48 13 21 45 l-25 30 6 -28 c5 -26 4 -28
-17 -22 -59 18 -89 84 -63 134 8 17 11 31 6 31 -5 0 -12 -7 -15 -16 -4 -9 -9
-14 -12 -11 -3 3 6 35 21 71 14 36 23 71 19 77 -4 7 -3 9 3 6 5 -4 44 70 89
168 43 95 82 169 85 163 4 -6 3 -22 -1 -37 -19 -64 -84 -221 -116 -278 -37
-66 -42 -103 -19 -143 16 -29 19 -44 6 -36 -26 16 -48 -61 -26 -89 16 -19 16
-18 12 23 -3 23 -1 42 3 42 4 0 24 -22 44 -50 24 -34 45 -52 68 -58 31 -8 31
-8 -25 -21 -31 -7 -57 -17 -57 -22 0 -5 3 -9 8 -9 22 0 230 64 263 80 51 26
61 26 48 -3 -6 -14 -28 -29 -57 -39 -26 -10 -71 -38 -100 -63 -33 -27 -63 -45
-79 -45 -16 0 -47 21 -93 62 -69 63 -154 117 -165 106 -11 -11 22 -72 56 -105
40 -37 82 -56 162 -73 32 -6 55 -16 51 -21 -3 -5 -14 -7 -25 -4 -23 8 -24 -4
-4 -31 15 -19 15 -19 30 1 60 84 82 108 123 135 43 29 48 30 59 13 20 -26 17
-29 -45 -52 -32 -11 -69 -32 -82 -46 -28 -30 -18 -33 16 -6 38 30 150 64 182
56 15 -4 23 -9 17 -11 -5 -1 -35 -9 -65 -18 -30 -8 -88 -36 -128 -62 -88 -56
-94 -55 -209 22 -90 60 -173 145 -173 175 0 33 70 237 116 339 24 53 44 107
44 118 0 24 -20 72 -30 72 -22 0 -38 -42 -43 -115 -3 -44 -15 -105 -26 -135
l-21 -55 4 100 c7 167 73 332 168 421 51 48 66 49 70 3z m433 1 c9 -54 27 -52
19 3 -5 32 -4 39 5 31 16 -15 26 -150 16 -200 l-8 -39 -9 53 c-19 126 -50 91
-56 -63 -2 -56 1 -118 7 -140 9 -35 8 -44 -22 -97 -18 -32 -35 -54 -40 -49 -5
5 -2 67 7 142 22 180 25 324 8 341 -11 10 -15 10 -22 -2 -8 -12 -10 -11 -10 7
0 43 10 53 55 53 43 0 43 -1 50 -40z m-111 -167 c-4 -65 -10 -104 -12 -88 -5
38 8 218 15 211 3 -3 2 -58 -3 -123z m204 -31 c2 -67 1 -133 -2 -147 -6 -22
-9 -23 -32 -13 -19 9 -30 9 -44 1 -10 -7 -21 -9 -24 -6 -9 9 -6 195 3 218 6
13 11 -9 15 -70 4 -49 10 -97 13 -105 10 -29 25 33 29 125 3 50 7 106 10 125
11 69 29 0 32 -128z m-504 95 c-39 -99 -139 -326 -141 -323 -3 2 87 260 119
339 8 20 14 25 21 18 7 -7 8 -19 1 -34z m176 -92 c6 -4 10 9 10 31 0 21 2 35
5 32 8 -8 32 -209 40 -333 10 -154 -9 -128 -47 66 -21 109 -36 159 -49 172
-12 11 -19 32 -19 56 0 52 11 58 32 17 10 -19 22 -38 28 -41z m420 -60 l-7
-70 -1 95 c0 53 3 84 7 70 4 -14 4 -56 1 -95z m-547 24 c3 -12 -2 -28 -12 -38
-11 -11 -21 -41 -25 -77 -4 -32 -16 -88 -26 -123 -26 -82 -25 -93 7 -132 27
-31 27 -32 100 -26 40 3 73 2 73 -3 0 -15 -42 -24 -104 -23 -104 2 -140 55
-119 176 11 66 82 267 94 267 4 0 9 -9 12 -21z m776 -35 c12 -20 20 -42 18
-48 -3 -9 -47 63 -47 79 0 12 9 3 29 -31z m-1000 -16 c0 -18 -4 -42 -9 -53 -6
-15 -9 -6 -9 33 -1 28 4 52 9 52 6 0 10 -15 9 -32z m264 15 c-39 -20 -44 -37
-7 -23 46 18 60 9 17 -10 -24 -11 -43 -21 -43 -24 0 -3 19 -4 41 -3 23 1 43
-3 45 -8 2 -6 -10 -10 -28 -10 -17 0 -33 -5 -35 -10 -1 -6 11 -10 29 -10 17 0
33 -6 35 -13 3 -7 -1 -10 -10 -7 -20 8 -41 -22 -39 -57 1 -17 -6 -42 -18 -58
-11 -16 -27 -45 -36 -66 -14 -34 -17 -35 -31 -21 -19 18 -19 70 -2 113 7 16
15 62 19 103 6 64 11 78 34 98 15 13 35 23 44 22 10 0 4 -7 -15 -16z m612 -94
c-6 -18 -4 -20 14 -15 61 18 63 16 16 -19 -27 -20 -51 -40 -53 -45 -5 -14 22
-12 53 2 22 10 31 7 80 -26 59 -41 90 -71 61 -60 -25 10 -19 -9 19 -60 20 -25
34 -46 31 -46 -2 0 -28 11 -56 24 -53 24 -53 25 -21 28 l32 3 -21 23 c-11 12
-32 22 -45 22 -26 0 -34 15 -12 23 9 3 8 9 -4 21 -14 15 -19 15 -57 2 -36 -13
-42 -13 -42 -1 0 8 -18 24 -40 35 -45 23 -44 31 4 83 30 33 50 36 41 6z m-33
-118 c5 -4 -20 -63 -55 -131 l-62 -125 -60 0 c-92 -1 -158 -55 -77 -63 18 -2
32 -7 32 -12 0 -20 -20 -60 -31 -60 -11 0 -189 81 -189 86 0 3 125 238 181
341 l40 71 107 -50 c59 -27 110 -53 114 -57z m-514 67 c12 -16 37 -105 50
-178 9 -47 8 -52 -4 -36 -14 20 -74 192 -74 214 0 16 15 16 28 0z m114 -142
c-10 -19 -22 22 -21 74 l2 55 12 -60 c6 -33 10 -64 7 -69z m-325 -74 c35 -47
58 -54 168 -47 90 5 98 4 81 -10 -35 -27 -125 -55 -176 -55 -39 0 -52 4 -65
22 -8 13 -11 24 -6 26 6 2 -6 28 -26 59 -40 59 -48 108 -22 139 13 16 15 11
20 -45 4 -39 14 -72 26 -89z m198 92 c9 -31 14 -58 11 -61 -2 -3 -23 -7 -45
-10 -40 -5 -41 -5 -41 23 0 25 42 104 55 104 2 0 11 -25 20 -56z m595 18 c-14
-9 -40 -32 -59 -52 -20 -21 -29 -26 -23 -14 14 27 79 84 95 83 7 0 1 -8 -13
-17z m-451 -92 c-23 -45 -44 -78 -48 -75 -3 4 -6 23 -6 43 0 29 6 42 30 60 16
12 33 29 38 37 4 8 12 15 18 15 6 0 -9 -36 -32 -80z m501 60 c13 -8 13 -10 -1
-10 -9 0 -32 -3 -50 -6 -32 -5 -33 -5 -15 10 23 18 44 20 66 6z m69 -72 c37
-19 57 -34 50 -39 -8 -5 -1 -29 25 -81 40 -80 43 -102 22 -152 -19 -46 -34
-53 -47 -20 -7 21 -6 39 5 75 21 62 20 82 -3 103 -38 34 -45 -31 -22 -182 15
-92 17 -130 9 -152 -16 -47 -25 -36 -32 43 -10 110 -32 203 -66 275 l-30 64
24 -6 c35 -9 53 17 33 48 -16 24 -53 36 -116 36 -27 0 -32 3 -21 10 32 20 105
11 169 -22z m-75 -18 c36 -13 34 -35 -1 -24 -36 10 -89 11 -131 2 -22 -5 -31
-4 -26 3 16 27 109 38 158 19z m191 -51 c12 -22 14 -38 7 -57 l-9 -27 -15 30
c-14 25 -15 85 -2 85 2 0 11 -14 19 -31z m-245 1 c10 -5 27 -25 39 -43 26 -43
77 -252 86 -354 l7 -79 -53 -41 c-30 -22 -64 -46 -76 -52 -22 -11 -23 -10 -23
21 0 18 7 116 15 218 8 102 15 202 15 223 0 54 -27 77 -90 77 -27 0 -50 3 -50
6 0 28 91 45 130 24z m-540 -29 c-19 -10 -46 -21 -60 -25 -14 -3 -2 5 25 18
58 29 87 34 35 7z m360 -46 c67 -18 63 -18 56 1 -4 11 -1 14 12 12 19 -3 27
-37 18 -73 -3 -12 -23 -44 -44 -70 -32 -40 -44 -48 -78 -50 -28 -3 -34 -1 -19
5 20 9 20 9 0 9 -11 1 -36 -3 -55 -9 -32 -9 -33 -8 -16 5 11 8 30 15 42 15 13
0 26 5 29 11 10 15 -1 23 -17 13 -12 -8 -93 -33 -110 -34 -5 0 -8 5 -8 10 0 6
8 10 19 10 27 0 71 39 88 77 12 30 12 36 -2 49 -9 9 -23 13 -33 10 -14 -5 -13
-3 2 9 25 19 46 19 116 0z m128 -173 c1 -107 -1 -162 -7 -152 -13 22 -19 342
-6 329 6 -6 11 -83 13 -177z m38 84 c-3 -32 -6 -83 -6 -113 0 -35 -4 -52 -10
-48 -7 4 -8 38 -4 93 3 49 1 107 -4 132 l-11 45 21 -25 c17 -21 19 -34 14 -84z
m-880 55 c52 -38 96 -87 71 -78 -10 4 -23 7 -28 7 -12 0 -99 80 -99 91 0 15
16 10 56 -20z m1066 -13 c-9 -9 -12 -7 -12 12 0 19 3 21 12 12 9 -9 9 -15 0
-24z m-533 -63 c23 -24 -110 31 -144 59 -11 9 16 0 60 -19 43 -20 81 -38 84
-40z m-530 -230 c22 -66 38 -121 37 -122 -1 -2 -21 13 -43 32 l-40 34 -7 103
c-4 57 -9 119 -11 138 -3 27 -1 23 10 -15 8 -27 33 -104 54 -170z m441 190
c-3 -5 -24 -9 -47 -7 -40 3 -44 1 -75 -42 -18 -26 -47 -55 -65 -66 -39 -23
-65 -63 -95 -143 -24 -66 -38 -61 -38 15 0 37 -5 52 -25 70 -21 20 -61 106
-52 114 6 6 24 -12 47 -46 27 -41 49 -60 68 -60 8 0 56 41 108 91 91 88 94 90
136 87 25 -2 41 -7 38 -13z m70 -24 c10 -25 7 -47 -25 -163 -70 -257 -75 -270
-99 -264 -11 3 -26 6 -32 6 -12 0 -36 65 -59 160 -9 36 -18 72 -21 82 -3 12 5
19 31 28 50 17 86 50 135 125 23 36 46 63 50 60 4 -2 13 -18 20 -34z m280 -65
c0 -56 -3 -131 -7 -166 l-6 -63 -24 109 c-13 60 -25 121 -25 135 -1 27 36 89
53 89 5 0 9 -46 9 -104z m-771 17 c6 -23 27 -63 47 -88 24 -32 34 -55 32 -73
-3 -26 -3 -26 -27 13 -25 43 -81 178 -81 197 0 22 16 -6 29 -49z m371 14 c0
-18 -5 -23 -22 -23 -16 1 -27 -9 -40 -36 -10 -21 -22 -38 -28 -38 -8 0 9 46
38 98 17 30 52 30 52 -1z m-165 -32 c-63 -54 -88 -55 -116 -3 -10 18 -9 19 21
3 30 -15 33 -15 73 9 60 34 68 31 22 -9z m470 -160 l0 -179 -38 -9 c-21 -5
-40 -8 -41 -6 -2 2 -7 89 -11 192 l-7 188 49 -3 48 -3 0 -180z m-121 133 c3
-24 7 -109 10 -190 4 -141 4 -148 -15 -148 -17 0 -19 6 -17 58 2 31 -1 117 -5
190 -8 115 -7 132 6 132 11 0 17 -13 21 -42z m-201 7 c-3 -9 -8 -14 -10 -11
-3 3 -2 9 2 15 9 16 15 13 8 -4z m-344 -76 c21 -55 37 -79 98 -145 l22 -24
-24 0 c-13 0 -33 10 -44 21 -17 19 -56 114 -76 187 -13 44 3 21 24 -39z m226
15 c-8 -17 -26 -41 -40 -54 -15 -14 -23 -30 -20 -40 3 -10 -1 -23 -10 -30 -41
-34 5 91 50 136 32 32 40 27 20 -12z m496 -138 c10 -82 9 -91 -7 -103 -10 -7
-21 -13 -26 -13 -4 0 -8 66 -7 148 1 142 1 145 15 102 8 -25 19 -85 25 -134z
m-222 -78 c1 -48 -3 -68 -11 -68 -15 0 -23 210 -11 270 6 29 8 20 14 -50 4
-47 7 -115 8 -152z m317 74 c4 -42 3 -62 -4 -62 -17 0 -20 10 -26 100 -6 79
-5 83 8 54 8 -17 18 -58 22 -92z m-606 64 c0 -14 -12 -38 -26 -53 -22 -25 -24
-25 -10 -3 9 13 16 34 16 46 0 18 8 34 17 34 2 0 3 -11 3 -24z m42 -40 c3 -14
1 -50 -5 -81 -10 -62 -10 -62 -92 -25 l-40 18 38 1 c50 1 77 29 77 82 0 43 14
46 22 5z m198 -86 l-7 -85 -2 81 c-1 68 5 103 15 92 1 -2 -2 -41 -6 -88z
m-254 34 c-11 -8 -29 -14 -40 -14 -16 0 -12 5 14 18 39 20 55 18 26 -4z m-49
10 c-3 -3 -12 -4 -19 -1 -8 3 -5 6 6 6 11 1 17 -2 13 -5z m619 -62 c-12 -11
-16 6 -9 39 l8 34 3 -33 c2 -19 1 -36 -2 -40z m-486 -13 c0 -10 5 -19 10 -19
6 0 10 -4 10 -9 0 -5 -9 -7 -20 -4 -14 4 -20 14 -20 35 0 17 4 27 10 23 6 -3
10 -15 10 -26z m136 -25 c-4 -14 -9 -24 -12 -21 -3 2 -2 17 2 31 3 15 9 25 11
22 3 -3 2 -17 -1 -32z"/>
<path d="M1109 2143 c-11 -13 -11 -17 -1 -20 6 -3 9 -9 6 -14 -9 -15 24 -59
44 -59 15 1 15 2 -2 15 -20 15 -20 15 0 15 10 0 26 5 34 10 13 9 12 12 -4 25
-19 15 -19 15 5 15 23 1 23 1 5 15 -26 20 -70 19 -87 -2z m54 -40 c-7 -2 -19
-2 -25 0 -7 3 -2 5 12 5 14 0 19 -2 13 -5z"/>
<path d="M1075 1910 c3 -5 10 -10 16 -10 5 0 9 5 9 10 0 6 -7 10 -16 10 -8 0
-12 -4 -9 -10z"/>
<path d="M1431 2186 c-15 -18 -11 -64 10 -113 12 -28 11 -35 -2 -48 -20 -20
-49 -9 -50 19 0 20 -1 20 -8 1 -21 -50 61 -62 88 -13 14 25 14 31 -7 80 -19
46 -20 54 -7 67 13 13 17 12 36 -5 21 -19 21 -19 18 1 -5 26 -60 33 -78 11z"/>
<path d="M812 2076 c4 -69 2 -108 -5 -115 -12 -12 -6 -14 17 -5 12 5 15 15 10
44 -6 34 -4 38 21 44 28 7 32 4 55 -36 6 -10 17 -14 30 -11 20 5 28 23 11 23
-6 0 -38 36 -72 80 -34 44 -64 80 -67 80 -3 0 -2 -47 0 -104z m48 -2 c0 -8 -7
-14 -15 -14 -10 0 -15 10 -15 26 0 22 2 25 15 14 8 -7 15 -19 15 -26z"/>
<path d="M1551 2157 c-7 -9 -2 -12 16 -13 13 -1 27 -5 31 -8 8 -9 -69 -166
-83 -166 -10 -1 35 -29 47 -30 4 0 5 6 2 13 -2 7 11 48 31 90 32 70 38 76 55
67 11 -6 20 -16 20 -23 0 -7 4 -6 10 3 12 19 7 23 -62 53 -42 19 -59 22 -67
14z"/>
<path d="M657 2106 c-11 -9 -14 -17 -8 -21 16 -9 74 -96 68 -101 -3 -3 -44 8
-91 25 -47 17 -86 29 -86 26 0 -2 22 -39 50 -82 27 -43 50 -84 50 -91 0 -9 5
-10 19 -2 18 9 18 11 -7 39 -15 16 -35 42 -45 59 l-17 30 86 -29 c48 -16 89
-27 91 -25 3 2 -19 41 -47 85 -28 44 -49 85 -45 91 8 13 4 12 -18 -4z"/>
<path d="M1744 2072 c3 -5 -15 -36 -39 -68 -49 -65 -58 -109 -27 -137 22 -20
62 -22 84 -4 9 6 37 38 62 69 45 56 45 58 25 69 -12 6 -19 7 -15 1 7 -12 -77
-127 -100 -136 -22 -8 -54 11 -54 33 0 21 81 136 101 143 7 2 0 11 -16 22 -15
10 -25 14 -21 8z"/>
<path d="M470 1965 c-14 -13 -10 -21 43 -77 32 -35 62 -70 65 -80 6 -15 9 -15
31 3 16 13 18 19 8 19 -14 0 -120 113 -128 138 -3 10 -8 9 -19 -3z"/>
<path d="M1920 1927 c0 -14 -96 -103 -133 -123 -16 -9 -14 -14 19 -52 30 -35
41 -42 72 -42 71 0 133 65 118 124 -7 30 -76 114 -76 93z m40 -56 c19 -37 11
-72 -24 -107 -41 -41 -86 -46 -111 -11 -16 21 -14 24 47 79 35 32 66 58 70 58
4 0 12 -9 18 -19z"/>
<path d="M364 1857 c-38 -48 -46 -77 -23 -77 6 0 8 4 5 9 -3 4 1 16 8 26 11
16 15 16 33 4 55 -40 113 -95 113 -108 0 -11 4 -10 20 4 22 20 26 35 9 35 -14
0 -139 100 -139 111 0 4 9 14 20 22 11 8 17 17 13 20 -11 12 -17 7 -59 -46z"/>
<path d="M2050 1751 c0 -16 -148 -103 -161 -95 -7 4 -3 -7 7 -25 14 -23 20
-27 24 -16 7 19 148 107 161 100 5 -4 4 5 -3 19 -11 25 -28 35 -28 17z"/>
<path d="M270 1731 c-9 -17 -8 -21 5 -21 19 0 119 -50 112 -56 -2 -2 -41 -11
-87 -19 -46 -8 -85 -17 -87 -19 -3 -2 17 -17 44 -32 97 -55 118 -68 124 -77 3
-5 9 -1 13 9 3 9 5 17 4 18 -2 1 -32 15 -68 32 l-64 31 97 17 c53 10 97 19 97
21 0 2 -35 23 -77 46 -43 23 -83 48 -90 56 -10 13 -13 12 -23 -6z"/>
<path d="M2013 1624 c-17 -9 -39 -31 -48 -50 -48 -101 98 -163 178 -74 34 38
34 70 1 109 -30 36 -77 41 -131 15z m118 -23 c20 -16 22 -23 14 -47 -13 -35
-79 -75 -119 -72 -39 4 -59 35 -43 68 11 23 87 70 113 70 6 0 22 -9 35 -19z"/>
<path d="M166 1495 c-8 -25 -11 -43 -6 -40 10 6 156 -41 176 -57 13 -10 48 67
39 83 -9 14 -25 11 -20 -3 9 -26 -11 -40 -44 -33 -37 8 -49 28 -31 50 10 12 9
15 -4 15 -9 0 -16 -7 -16 -15 0 -22 -22 -28 -54 -15 -27 10 -28 11 -12 35 14
21 14 25 2 25 -8 0 -21 -20 -30 -45z"/>
<path d="M2201 1444 c-1 -14 -175 -49 -192 -38 -9 5 -10 2 -6 -10 4 -10 7 -25
7 -34 0 -13 2 -14 8 -4 10 15 82 29 82 15 0 -5 -16 -23 -35 -40 -25 -22 -35
-40 -35 -60 l0 -28 19 30 c27 46 60 64 94 53 36 -13 78 12 76 45 -2 27 -16 86
-18 71z m-1 -58 c0 -22 -26 -38 -57 -34 -35 4 -44 35 -11 41 47 9 68 7 68 -7z"/>
<path d="M291 1332 c-41 -24 -45 -24 -71 -8 -37 21 -77 21 -88 -1 -5 -10 -12
-35 -15 -56 -5 -29 -3 -36 6 -29 11 9 165 -9 186 -22 5 -3 11 4 13 17 4 20 1
22 -26 19 -60 -6 -74 30 -17 43 30 6 66 38 60 52 -2 5 -24 -2 -48 -15z m-71
-37 c18 -22 3 -35 -33 -29 -57 10 -61 12 -47 29 16 19 64 19 80 0z"/>
<path d="M2240 1220 c0 -6 -32 -10 -76 -10 -41 0 -84 -5 -95 -11 -29 -15 -41
-54 -27 -84 14 -30 29 -35 129 -44 78 -7 79 -6 79 16 0 21 -2 22 -21 12 -25
-13 -146 -3 -166 13 -20 16 -15 46 8 58 12 7 54 10 100 8 l79 -3 0 28 c0 15
-2 27 -5 27 -3 0 -5 -4 -5 -10z"/>
<path d="M164 1170 c-25 -10 -64 -57 -64 -77 0 -27 29 -69 55 -81 97 -44 200
35 155 119 -22 40 -95 60 -146 39z m110 -31 c33 -15 40 -37 21 -66 -28 -43
-110 -58 -153 -27 -69 48 48 131 132 93z"/>
<path d="M2027 1019 c-3 -10 0 -16 7 -13 15 6 108 -31 100 -39 -4 -4 -23 -7
-43 -8 -20 -1 -47 -4 -60 -8 -22 -6 -20 -9 33 -44 31 -20 56 -40 56 -43 0 -4
-30 -1 -101 12 -22 4 -27 1 -31 -21 -4 -18 -2 -22 6 -16 7 6 48 5 109 -3 53
-7 97 -10 97 -7 0 3 -31 26 -68 51 l-67 44 43 8 c23 4 61 11 85 16 l42 7 -102
41 c-91 36 -102 39 -106 23z"/>
<path d="M306 982 c17 -12 24 -40 11 -50 -18 -14 -156 -44 -169 -36 -8 5 -9 1
-5 -10 4 -10 7 -24 7 -33 0 -12 2 -12 13 -1 8 7 53 22 101 32 l88 19 -7 36
c-9 45 -12 51 -33 51 -10 0 -13 -3 -6 -8z"/>
<path d="M263 833 c-10 -3 -10 -10 -2 -24 13 -25 6 -35 -27 -43 -29 -8 -48 8
-39 32 5 14 -11 17 -19 3 -7 -11 26 -94 33 -83 9 13 171 73 181 67 5 -3 3 8
-3 25 -8 22 -13 26 -19 16 -13 -23 -78 -41 -88 -26 -5 7 -6 19 -3 27 5 14 5
14 -14 6z"/>
<path d="M2029 726 c9 -11 9 -16 0 -21 -6 -4 -14 -3 -18 3 -4 6 -16 9 -27 6
-16 -4 -20 -11 -16 -30 3 -15 10 -23 20 -22 8 2 17 -3 20 -11 3 -10 -1 -12
-18 -8 l-23 6 20 -21 c21 -21 43 -18 43 6 0 8 10 11 30 8 34 -5 40 11 11 30
-15 9 -17 15 -7 30 9 15 8 21 -4 28 -8 5 -21 10 -29 10 -10 0 -11 -3 -2 -14z"/>
<path d="M333 673 c-7 -2 -13 -11 -13 -18 0 -7 6 -15 13 -18 8 -3 5 -10 -10
-22 -33 -23 -29 -39 7 -31 22 4 30 2 30 -9 0 -24 17 -26 41 -5 l24 19 -24 -6
c-18 -4 -22 -2 -19 8 3 8 12 13 20 11 10 -1 17 7 20 23 3 16 1 25 -7 25 -7 0
-18 7 -25 15 -12 15 -34 18 -57 8z m47 -18 c0 -8 -4 -15 -9 -15 -13 0 -22 16
-14 24 11 11 23 6 23 -9z"/>
<path d="M1832 578 c-37 -40 -29 -65 43 -134 61 -58 65 -61 80 -44 14 15 14
18 2 16 -8 0 -40 21 -71 47 -40 34 -56 55 -56 73 0 54 54 44 127 -24 51 -47
54 -48 69 -30 12 12 13 18 5 18 -7 0 -36 20 -65 45 -67 57 -103 65 -134 33z"/>
<path d="M471 534 c-12 -15 -21 -41 -21 -58 0 -42 -21 -71 -45 -63 -11 5 -15
14 -12 27 6 24 -11 27 -20 3 -9 -23 33 -56 61 -47 24 8 45 32 46 54 0 8 5 32
11 53 8 31 14 38 32 35 17 -2 22 -10 22 -30 -1 -21 2 -24 12 -16 18 15 16 32
-5 51 -27 24 -58 21 -81 -9z"/>
<path d="M590 481 c0 -11 -13 -55 -30 -98 -16 -42 -30 -84 -30 -91 0 -8 35 11
82 44 45 31 88 57 95 57 19 0 16 10 -8 25 -12 8 -18 9 -15 3 4 -5 -4 -17 -18
-26 -48 -31 -84 17 -45 60 14 14 11 23 -11 35 -17 9 -20 8 -20 -9z m10 -133
c-28 -23 -34 -18 -19 16 10 21 15 24 27 14 12 -10 11 -15 -8 -30z"/>
<path d="M1735 474 c-14 -11 -15 -14 -4 -14 12 0 92 -90 85 -97 -1 -1 -37 7
-80 18 -43 11 -82 19 -88 17 -5 -2 16 -38 47 -81 31 -42 53 -82 49 -88 -3 -6
5 -3 20 6 23 16 39 34 17 21 -10 -6 -97 91 -89 99 2 3 43 -6 91 -19 48 -13 87
-21 87 -16 0 4 -15 27 -34 52 -19 24 -45 60 -58 80 -22 32 -26 34 -43 22z"/>
<path d="M1567 369 c-18 -11 -18 -11 0 -24 10 -7 34 -46 53 -86 19 -41 35 -75
36 -77 1 -2 12 1 23 7 19 11 20 12 3 29 -9 10 -33 50 -52 89 -19 40 -37 72
-40 72 -3 0 -13 -4 -23 -10z"/>
<path d="M780 355 c0 -22 -68 -155 -79 -155 -5 0 -16 7 -25 15 -18 18 -26 19
-26 2 0 -12 102 -71 124 -72 5 0 11 6 14 14 3 8 1 11 -4 9 -5 -3 -19 -2 -32 3
l-22 9 39 79 c22 43 45 81 52 83 6 2 0 9 -15 16 -22 10 -26 9 -26 -3z"/>
<path d="M893 313 c7 -11 -39 -159 -55 -179 -5 -8 -3 -14 8 -18 22 -9 36 -7
30 3 -6 9 33 132 53 170 7 12 8 21 2 21 -5 0 -17 3 -27 7 -11 4 -15 2 -11 -4z"/>
<path d="M1447 202 c-3 -59 -4 -108 -3 -110 2 -1 11 1 20 4 12 5 14 9 6 14 -7
4 -10 32 -8 76 l3 69 39 -55 c22 -30 39 -60 39 -66 0 -9 8 -9 31 -1 18 7 25
13 16 15 -8 1 -40 37 -70 78 -30 42 -58 77 -61 80 -3 2 -9 -45 -12 -104z"/>
<path d="M972 274 c-28 -20 -29 -75 -2 -119 32 -51 9 -85 -33 -47 -19 16 -19
16 -16 -3 5 -24 52 -33 75 -14 20 17 17 66 -7 105 -25 41 -18 77 14 72 13 -2
23 -13 27 -28 l6 -25 7 25 c10 39 -33 61 -71 34z"/>
<path d="M1070 270 c0 -6 4 -10 8 -10 5 0 18 -18 31 -40 20 -37 21 -41 6 -69
-20 -39 -19 -47 5 -71 14 -14 33 -20 63 -20 24 0 37 4 30 8 -10 6 -11 32 -5
105 7 94 7 97 -13 97 -18 0 -20 -5 -17 -40 5 -52 -16 -54 -43 -3 -19 34 -65
65 -65 43z m108 -142 c-3 -48 -31 -66 -43 -28 -11 34 3 70 26 70 18 0 20 -5
17 -42z"/>
<path d="M1263 273 c-22 -8 -14 -20 11 -16 28 6 33 0 37 -47 4 -31 1 -35 -19
-34 -12 0 -22 -5 -22 -11 0 -8 10 -10 25 -7 20 3 25 0 25 -16 0 -11 3 -28 7
-38 5 -14 1 -16 -25 -12 -22 3 -32 0 -32 -9 0 -8 12 -13 34 -13 50 0 67 9 57
28 -9 16 -27 144 -24 170 1 12 -49 16 -74 5z"/>
</g>
</svg>
